<svg width="41" height="41" viewBox="0 0 41 41" fill="none" xmlns="http://www.w3.org/2000/svg">
<g clip-path="url(#clip0_502_4101)">
<path fill-rule="evenodd" clip-rule="evenodd" d="M26.1871 11.6898C24.5426 10.591 22.6092 10.0045 20.6314 10.0045V0.0045166C24.587 0.0045166 28.4538 1.1775 31.7428 3.37513C35.0318 5.57275 37.5952 8.69633 39.109 12.3508C40.6227 16.0053 41.0188 20.0267 40.2471 23.9063C39.4754 27.7859 37.5706 31.3496 34.7735 34.1466C31.9765 36.9437 28.4128 38.8485 24.5332 39.6202C20.6536 40.3919 16.6322 39.9958 12.9777 38.4821C9.32322 36.9683 6.19964 34.4049 4.00202 31.1159C1.80439 27.8269 0.631409 23.9601 0.631409 20.0045H10.6314C10.6314 21.9823 11.2179 23.9157 12.3167 25.5602C13.4155 27.2047 14.9773 28.4864 16.8046 29.2433C18.6318 30.0002 20.6425 30.1982 22.5823 29.8123C24.5221 29.4265 26.3039 28.4741 27.7025 27.0756C29.101 25.677 30.0534 23.8952 30.4392 21.9554C30.8251 20.0156 30.6271 18.0049 29.8702 16.1777C29.1133 14.3504 27.8316 12.7886 26.1871 11.6898Z" fill="white"/>
<path fill-rule="evenodd" clip-rule="evenodd" d="M10.6314 0.00452093C10.6314 1.31774 10.3728 2.6181 9.8702 3.83135C9.36765 5.04461 8.63106 6.147 7.70247 7.07559C6.77389 8.00418 5.6715 8.74077 4.45824 9.24332C3.24498 9.74586 1.94462 10.0045 0.631409 10.0045L0.631409 20.0045C3.25784 20.0045 5.85856 19.4872 8.28508 18.4821C10.7116 17.477 12.9164 16.0038 14.7735 14.1466C16.6307 12.2895 18.1039 10.0847 19.109 7.65819C20.1141 5.23167 20.6314 2.63095 20.6314 0.0045166L10.6314 0.00452093Z" fill="white"/>
</g>
<defs>
<clipPath id="clip0_502_4101">
<rect width="40" height="40" fill="white" transform="translate(0.631409 0.0045166)"/>
</clipPath>
</defs>
</svg>
